<?xml version="1.0" encoding="UTF-8"?>
<svg xmlns="http://www.w3.org/2000/svg" viewBox="0 0 1200 460" width="1200" height="460" role="img">
  <title>truss — 章节题图（铜版线描；颜色取自 theme.css 图版令牌，无外部资源）</title>
  <defs>
    <pattern id="grid" width="30" height="30" patternUnits="userSpaceOnUse">
      <path d="M30 0 L0 0 0 30" fill="none" stroke="#ebe4d7" stroke-width="1.25" opacity="0.7"/>
    </pattern>
    <pattern id="hatch" width="7" height="7" patternUnits="userSpaceOnUse" patternTransform="rotate(45)">
      <path d="M0 0 V7" stroke="#6e675c" stroke-width="1.43" opacity="0.5"/>
    </pattern>
    <pattern id="hatch-soft" width="11" height="11" patternUnits="userSpaceOnUse" patternTransform="rotate(45)">
      <path d="M0 0 V11" stroke="#6e675c" stroke-width="1.34" opacity="0.34"/>
    </pattern>
    <pattern id="hatch-rev" width="8" height="8" patternUnits="userSpaceOnUse" patternTransform="rotate(-45)">
      <path d="M0 0 V8" stroke="#6e675c" stroke-width="1.43" opacity="0.42"/>
    </pattern>
    <pattern id="cross" width="8" height="8" patternUnits="userSpaceOnUse">
      <path d="M0 8 L8 0 M0 0 L8 8" stroke="#6e675c" stroke-width="1.34" opacity="0.42"/>
    </pattern>
    <pattern id="stipple" width="10" height="10" patternUnits="userSpaceOnUse">
      <circle cx="2.5" cy="2.5" r="1.52" fill="#6e675c" opacity="0.5"/>
      <circle cx="7.5" cy="7.5" r="1.52" fill="#6e675c" opacity="0.34"/>
    </pattern>
    <pattern id="brick" width="34" height="16" patternUnits="userSpaceOnUse">
      <path d="M0 0 H34 M0 8 H34 M0 16 H34 M17 0 V8 M0 8 V16 M34 8 V16"
            fill="none" stroke="#6e675c" stroke-width="1.43" opacity="0.55"/>
    </pattern>
    <pattern id="water" width="26" height="10" patternUnits="userSpaceOnUse">
      <path d="M0 6 Q6.5 1 13 6 T26 6" fill="none" stroke="#6e675c" stroke-width="1.52" opacity="0.5"/>
    </pattern>
  </defs>
  <rect width="1200" height="460" fill="#fbf8f1"/>
  <g><path d="M40.0,40.0 L93.5,40.2 L146.7,39.6 L200.0,40.3 L253.6,40.2 L306.5,39.8 L359.8,39.8 L413.3,40.1 L466.4,40.1 L519.8,40.2 L573.1,40.3 L626.9,40.0 L679.8,39.8 L733.1,39.8 L786.9,40.3 L839.7,40.1 L893.6,40.3 L946.8,40.3 L999.9,40.2 L1053.3,40.3 L1106.9,39.9 L1160.0,40.0 1160.0,40.0 L1159.7,94.0 L1159.8,148.7 L1159.7,203.1 L1159.8,257.2 L1159.8,311.7 L1159.7,365.7 L1160.0,420.0 1160.0,420.0 L1107.0,420.0 L1053.4,420.2 L999.9,419.7 L946.9,419.9 L893.2,419.8 L840.2,420.3 L786.7,419.8 L733.2,419.9 L679.9,420.3 L626.7,420.1 L573.1,420.1 L520.1,419.8 L466.4,420.3 L413.3,420.2 L359.9,419.8 L306.7,420.0 L253.1,420.0 L200.0,420.1 L146.9,419.7 L93.6,420.2 L40.0,420.0 40.0,420.0 L39.7,365.8 L39.6,311.2 L40.2,257.2 L40.1,202.6 L40.3,148.5 L39.9,94.4 L40.0,40.0" fill="none" stroke="#6e675c" stroke-width="2.15"/><path d="M40 40 h12 M40 40 v12" stroke="#1e1c19" stroke-width="2.87" stroke-linecap="round" fill="none"/><path d="M1160 40 h-12 M1160 40 v12" stroke="#1e1c19" stroke-width="2.87" stroke-linecap="round" fill="none"/><path d="M40 420 h12 M40 420 v-12" stroke="#1e1c19" stroke-width="2.87" stroke-linecap="round" fill="none"/><path d="M1160 420 h-12 M1160 420 v-12" stroke="#1e1c19" stroke-width="2.87" stroke-linecap="round" fill="none"/><path d="M64.0,398.0 L64.0,398.0" fill="none" stroke="#1e1c19" stroke-width="3.76" stroke-linecap="round" stroke-linejoin="round"/><path d="M64.0,398.0 L70.0,398.0" fill="none" stroke="#6e675c" stroke-width="1.97" stroke-linecap="round" stroke-linejoin="round"/><path d="M64.0,398.0 L76.0,398.0" fill="none" stroke="#6e675c" stroke-width="1.97" stroke-linecap="round" stroke-linejoin="round"/><path d="M64.0,398.0 L82.0,398.0" fill="none" stroke="#6e675c" stroke-width="1.97" stroke-linecap="round" stroke-linejoin="round"/><path d="M64.0,398.0 L88.0,398.0" fill="none" stroke="#6e675c" stroke-width="1.97" stroke-linecap="round" stroke-linejoin="round"/><path d="M64.0,398.0 L94.0,398.0" fill="none" stroke="#1e1c19" stroke-width="3.76" stroke-linecap="round" stroke-linejoin="round"/><path d="M64.0,398.0 L100.0,398.0" fill="none" stroke="#6e675c" stroke-width="1.97" stroke-linecap="round" stroke-linejoin="round"/><path d="M64.0,398.0 L106.0,398.0" fill="none" stroke="#6e675c" stroke-width="1.97" stroke-linecap="round" stroke-linejoin="round"/><path d="M64.0,398.0 L112.0,398.0" fill="none" stroke="#6e675c" stroke-width="1.97" stroke-linecap="round" stroke-linejoin="round"/><path d="M64.0,398.0 L118.0,398.0" fill="none" stroke="#6e675c" stroke-width="1.97" stroke-linecap="round" stroke-linejoin="round"/><path d="M64.0,398.0 L124.0,398.0" fill="none" stroke="#1e1c19" stroke-width="3.76" stroke-linecap="round" stroke-linejoin="round"/><path d="M64.0,392.0 L64.0,404.0" fill="none" stroke="#6e675c" stroke-width="1.97" stroke-linecap="round" stroke-linejoin="round"/><path d="M124.0,392.0 L124.0,404.0" fill="none" stroke="#6e675c" stroke-width="1.97" stroke-linecap="round" stroke-linejoin="round"/></g>
  <g><path d="M110.0,168.0 L165.0,168.0 L220.9,168.9 L276.2,167.7 L330.0,168.7 L385.1,167.7 L441.4,168.5 L495.1,167.3 L551.6,168.0 L606.8,168.0 L661.8,168.3 L716.3,167.5 L772.0,168.2 L827.3,168.8 L882.6,167.5 L936.4,168.6 L992.0,168.0" fill="none" stroke="#1e1c19" stroke-width="3.76" stroke-linecap="round" stroke-linejoin="round"/><path d="M110.0,288.0 L165.4,287.8 L220.4,287.2 L275.8,287.2 L329.9,288.6 L385.1,287.9 L440.3,288.4 L495.4,287.2 L551.9,287.3 L606.7,288.4 L660.9,288.5 L717.0,287.6 L772.0,288.3 L826.0,288.2 L882.1,288.7 L936.5,288.8 L992.0,288.0" fill="none" stroke="#1e1c19" stroke-width="3.76" stroke-linecap="round" stroke-linejoin="round"/><path d="M110.0,168.0 L109.4,228.3 L110.0,288.0" fill="none" stroke="#6e675c" stroke-width="2.33" stroke-linecap="round" stroke-linejoin="round"/><path d="M110.0,288.0 L158.5,227.4 L208.0,168.0" fill="none" stroke="#6e675c" stroke-width="2.6" stroke-linecap="round" stroke-linejoin="round"/><path d="M208.0,168.0 L208.1,227.2 L208.0,288.0" fill="none" stroke="#6e675c" stroke-width="2.33" stroke-linecap="round" stroke-linejoin="round"/><path d="M208.0,168.0 L257.2,227.9 L306.0,288.0" fill="none" stroke="#6e675c" stroke-width="2.6" stroke-linecap="round" stroke-linejoin="round"/><path d="M306.0,168.0 L306.1,228.1 L306.0,288.0" fill="none" stroke="#6e675c" stroke-width="2.33" stroke-linecap="round" stroke-linejoin="round"/><path d="M306.0,288.0 L355.8,227.3 L404.0,168.0" fill="none" stroke="#6e675c" stroke-width="2.6" stroke-linecap="round" stroke-linejoin="round"/><path d="M404.0,168.0 L404.2,227.3 L404.0,288.0" fill="none" stroke="#6e675c" stroke-width="2.33" stroke-linecap="round" stroke-linejoin="round"/><path d="M404.0,168.0 L453.5,228.4 L502.0,288.0" fill="none" stroke="#6e675c" stroke-width="2.6" stroke-linecap="round" stroke-linejoin="round"/><path d="M502.0,168.0 L501.4,228.5 L502.0,288.0" fill="none" stroke="#6e675c" stroke-width="2.33" stroke-linecap="round" stroke-linejoin="round"/><path d="M502.0,288.0 L550.9,228.8 L600.0,168.0" fill="none" stroke="#6e675c" stroke-width="2.6" stroke-linecap="round" stroke-linejoin="round"/><path d="M600.0,168.0 L599.7,227.9 L600.0,288.0" fill="none" stroke="#6e675c" stroke-width="2.33" stroke-linecap="round" stroke-linejoin="round"/><path d="M600.0,168.0 L649.3,228.0 L698.0,288.0" fill="none" stroke="#6e675c" stroke-width="2.6" stroke-linecap="round" stroke-linejoin="round"/><path d="M698.0,168.0 L698.2,227.3 L698.0,288.0" fill="none" stroke="#6e675c" stroke-width="2.33" stroke-linecap="round" stroke-linejoin="round"/><path d="M698.0,288.0 L747.4,228.6 L796.0,168.0" fill="none" stroke="#6e675c" stroke-width="2.6" stroke-linecap="round" stroke-linejoin="round"/><path d="M796.0,168.0 L796.5,228.1 L796.0,288.0" fill="none" stroke="#6e675c" stroke-width="2.33" stroke-linecap="round" stroke-linejoin="round"/><path d="M796.0,168.0 L845.8,227.2 L894.0,288.0" fill="none" stroke="#6e675c" stroke-width="2.6" stroke-linecap="round" stroke-linejoin="round"/><path d="M894.0,168.0 L893.1,227.4 L894.0,288.0" fill="none" stroke="#6e675c" stroke-width="2.33" stroke-linecap="round" stroke-linejoin="round"/><path d="M894.0,288.0 L942.6,228.9 L992.0,168.0" fill="none" stroke="#6e675c" stroke-width="2.6" stroke-linecap="round" stroke-linejoin="round"/><path d="M992.0,168.0 L992.3,227.6 L992.0,288.0" fill="none" stroke="#6e675c" stroke-width="2.33" stroke-linecap="round" stroke-linejoin="round"/><path d="M226.0,130.0 L294.0,130.0 294.0,130.0 L294.0,156.0 294.0,156.0 L226.0,156.0 226.0,156.0 L226.0,130.0" fill="#f1ece1" stroke="#6e675c" stroke-width="2.33" stroke-linecap="round" stroke-linejoin="round"/><rect x="226" y="130" width="68" height="26" fill="url(#hatch-soft)" stroke="none"/><path d="M238.0,158.0 L238.0,174.0" fill="none" stroke="#1e1c19" stroke-width="2.15" stroke-linecap="round" stroke-linejoin="round"/><path d="M260.0,158.0 L260.0,174.0" fill="none" stroke="#1e1c19" stroke-width="2.15" stroke-linecap="round" stroke-linejoin="round"/><path d="M282.0,158.0 L282.0,174.0" fill="none" stroke="#1e1c19" stroke-width="2.15" stroke-linecap="round" stroke-linejoin="round"/><path d="M526.0,112.0 L594.0,112.0 594.0,112.0 L594.0,156.0 594.0,156.0 L526.0,156.0 526.0,156.0 L526.0,112.0" fill="#f1ece1" stroke="#6e675c" stroke-width="2.33" stroke-linecap="round" stroke-linejoin="round"/><rect x="526" y="112" width="68" height="44" fill="url(#hatch-soft)" stroke="none"/><path d="M538.0,158.0 L538.0,174.0" fill="none" stroke="#1e1c19" stroke-width="2.15" stroke-linecap="round" stroke-linejoin="round"/><path d="M560.0,158.0 L560.0,174.0" fill="none" stroke="#1e1c19" stroke-width="2.15" stroke-linecap="round" stroke-linejoin="round"/><path d="M582.0,158.0 L582.0,174.0" fill="none" stroke="#1e1c19" stroke-width="2.15" stroke-linecap="round" stroke-linejoin="round"/><path d="M826.0,126.0 L894.0,126.0 894.0,126.0 L894.0,156.0 894.0,156.0 L826.0,156.0 826.0,156.0 L826.0,126.0" fill="#f1ece1" stroke="#6e675c" stroke-width="2.33" stroke-linecap="round" stroke-linejoin="round"/><rect x="826" y="126" width="68" height="30" fill="url(#hatch-soft)" stroke="none"/><path d="M838.0,158.0 L838.0,174.0" fill="none" stroke="#1e1c19" stroke-width="2.15" stroke-linecap="round" stroke-linejoin="round"/><path d="M860.0,158.0 L860.0,174.0" fill="none" stroke="#1e1c19" stroke-width="2.15" stroke-linecap="round" stroke-linejoin="round"/><path d="M882.0,158.0 L882.0,174.0" fill="none" stroke="#1e1c19" stroke-width="2.15" stroke-linecap="round" stroke-linejoin="round"/><path d="M178.0,288.0 L238.0,288.0 238.0,288.0 L228.0,356.0 228.0,356.0 L188.0,356.0 188.0,356.0 L178.0,288.0" fill="#f1ece1" stroke="#1e1c19" stroke-width="3.76" stroke-linecap="round" stroke-linejoin="round"/><path d="M178,288 L238,288 L228,356 L188,356 Z" fill="url(#hatch)" stroke="none"/><path d="M472.0,288.0 L532.0,288.0 532.0,288.0 L522.0,356.0 522.0,356.0 L482.0,356.0 482.0,356.0 L472.0,288.0" fill="#f1ece1" stroke="#1e1c19" stroke-width="3.76" stroke-linecap="round" stroke-linejoin="round"/><path d="M472,288 L532,288 L522,356 L482,356 Z" fill="url(#hatch)" stroke="none"/><path d="M766.0,288.0 L826.0,288.0 826.0,288.0 L816.0,356.0 816.0,356.0 L776.0,356.0 776.0,356.0 L766.0,288.0" fill="#f1ece1" stroke="#1e1c19" stroke-width="3.76" stroke-linecap="round" stroke-linejoin="round"/><path d="M766,288 L826,288 L816,356 L776,356 Z" fill="url(#hatch)" stroke="none"/><path d="M96.0,356.0 L149.5,355.3 L203.0,356.3 L254.8,355.2 L307.5,356.7 L361.5,356.5 L415.0,356.4 L468.3,356.1 L520.2,355.9 L574.3,356.3 L625.7,355.2 L678.7,356.2 L731.8,355.5 L785.5,356.4 L839.0,356.2 L891.4,355.1 L945.3,355.4 L998.5,356.8 L1051.0,355.6 L1104.0,356.0" fill="none" stroke="#1e1c19" stroke-width="3.76" stroke-linecap="round" stroke-linejoin="round"/><path d="M100.0,356.0 L87.0,370.0" fill="none" stroke="#6e675c" stroke-width="2.15" stroke-linecap="round" stroke-linejoin="round"/><path d="M162.0,356.0 L149.0,370.0" fill="none" stroke="#6e675c" stroke-width="2.15" stroke-linecap="round" stroke-linejoin="round"/><path d="M224.0,356.0 L211.0,370.0" fill="none" stroke="#6e675c" stroke-width="2.15" stroke-linecap="round" stroke-linejoin="round"/><path d="M286.0,356.0 L273.0,370.0" fill="none" stroke="#6e675c" stroke-width="2.15" stroke-linecap="round" stroke-linejoin="round"/><path d="M348.0,356.0 L335.0,370.0" fill="none" stroke="#6e675c" stroke-width="2.15" stroke-linecap="round" stroke-linejoin="round"/><path d="M410.0,356.0 L397.0,370.0" fill="none" stroke="#6e675c" stroke-width="2.15" stroke-linecap="round" stroke-linejoin="round"/><path d="M472.0,356.0 L459.0,370.0" fill="none" stroke="#6e675c" stroke-width="2.15" stroke-linecap="round" stroke-linejoin="round"/><path d="M534.0,356.0 L521.0,370.0" fill="none" stroke="#6e675c" stroke-width="2.15" stroke-linecap="round" stroke-linejoin="round"/><path d="M596.0,356.0 L583.0,370.0" fill="none" stroke="#6e675c" stroke-width="2.15" stroke-linecap="round" stroke-linejoin="round"/><path d="M658.0,356.0 L645.0,370.0" fill="none" stroke="#6e675c" stroke-width="2.15" stroke-linecap="round" stroke-linejoin="round"/><path d="M720.0,356.0 L707.0,370.0" fill="none" stroke="#6e675c" stroke-width="2.15" stroke-linecap="round" stroke-linejoin="round"/><path d="M782.0,356.0 L769.0,370.0" fill="none" stroke="#6e675c" stroke-width="2.15" stroke-linecap="round" stroke-linejoin="round"/><path d="M844.0,356.0 L831.0,370.0" fill="none" stroke="#6e675c" stroke-width="2.15" stroke-linecap="round" stroke-linejoin="round"/><path d="M906.0,356.0 L893.0,370.0" fill="none" stroke="#6e675c" stroke-width="2.15" stroke-linecap="round" stroke-linejoin="round"/><path d="M968.0,356.0 L955.0,370.0" fill="none" stroke="#6e675c" stroke-width="2.15" stroke-linecap="round" stroke-linejoin="round"/><path d="M1030.0,356.0 L1017.0,370.0" fill="none" stroke="#6e675c" stroke-width="2.15" stroke-linecap="round" stroke-linejoin="round"/><path d="M502.0,168.0 L551.7,228.3 L600.0,288.0" fill="none" stroke="#2f6154" stroke-width="3.76" stroke-linecap="round" stroke-linejoin="round"/><path d="M510.0,168.0 L509.4,171.1 509.4,171.1 L507.7,173.7 507.7,173.7 L505.1,175.4 505.1,175.4 L502.0,176.0 502.0,176.0 L498.9,175.4 498.9,175.4 L496.3,173.7 496.3,173.7 L494.6,171.1 494.6,171.1 L494.0,168.0 494.0,168.0 L494.6,164.9 494.6,164.9 L496.3,162.3 496.3,162.3 L498.9,160.6 498.9,160.6 L502.0,160.0 502.0,160.0 L505.1,160.6 505.1,160.6 L507.7,162.3 507.7,162.3 L509.4,164.9 509.4,164.9 L510.0,168.0 510.0,168.0 L510.0,168.0" fill="#fbf8f1" stroke="#2f6154" stroke-width="3.76" stroke-linecap="round" stroke-linejoin="round"/><path d="M608.0,288.0 L607.4,291.1 607.4,291.1 L605.7,293.7 605.7,293.7 L603.1,295.4 603.1,295.4 L600.0,296.0 600.0,296.0 L596.9,295.4 596.9,295.4 L594.3,293.7 594.3,293.7 L592.6,291.1 592.6,291.1 L592.0,288.0 592.0,288.0 L592.6,284.9 592.6,284.9 L594.3,282.3 594.3,282.3 L596.9,280.6 596.9,280.6 L600.0,280.0 600.0,280.0 L603.1,280.6 603.1,280.6 L605.7,282.3 605.7,282.3 L607.4,284.9 607.4,284.9 L608.0,288.0 608.0,288.0 L608.0,288.0" fill="#fbf8f1" stroke="#2f6154" stroke-width="3.76" stroke-linecap="round" stroke-linejoin="round"/><path d="M571.0,228.0 L569.5,235.7 569.5,235.7 L565.1,242.1 565.1,242.1 L558.7,246.5 558.7,246.5 L551.0,248.0 551.0,248.0 L543.3,246.5 543.3,246.5 L536.9,242.1 536.9,242.1 L532.5,235.7 532.5,235.7 L531.0,228.0 531.0,228.0 L532.5,220.3 532.5,220.3 L536.9,213.9 536.9,213.9 L543.3,209.5 543.3,209.5 L551.0,208.0 551.0,208.0 L558.7,209.5 558.7,209.5 L565.1,213.9 565.1,213.9 L569.5,220.3 569.5,220.3 L571.0,228.0 571.0,228.0 L571.0,228.0" fill="none" stroke="#2f6154" stroke-width="2.15" stroke-linecap="round" stroke-linejoin="round" stroke-dasharray="10.75 8.96"/></g>
</svg>
